<svg width="512" height="512" viewBox="0 0 512 512" fill="none" xmlns="http://www.w3.org/2000/svg">
<path d="M256 510.5C188.02 510.5 124.11 484.03 76.04 435.96C27.97 387.89 1.5 323.98 1.5 256C1.5 188.02 27.97 124.11 76.04 76.04C124.11 27.97 188.02 1.5 256 1.5C323.98 1.5 387.89 27.97 435.96 76.04C484.03 124.11 510.5 188.02 510.5 256C510.5 323.98 484.03 387.89 435.96 435.96C387.89 484.03 323.98 510.5 256 510.5Z" fill="white"/>
<path d="M256 3C290.16 3 323.29 9.69 354.48 22.88C384.61 35.62 411.66 53.87 434.9 77.1C458.14 100.34 476.38 127.39 489.12 157.52C502.31 188.71 509 221.84 509 256C509 290.16 502.31 323.29 489.12 354.48C476.38 384.61 458.13 411.66 434.9 434.9C411.66 458.14 384.61 476.38 354.48 489.12C323.29 502.31 290.16 509 256 509C221.84 509 188.71 502.31 157.52 489.12C127.39 476.38 100.34 458.13 77.1 434.9C53.86 411.66 35.62 384.61 22.88 354.48C9.69 323.29 3 290.16 3 256C3 221.84 9.69 188.71 22.88 157.52C35.62 127.39 53.87 100.34 77.1 77.1C100.34 53.86 127.39 35.62 157.52 22.88C188.71 9.69 221.84 3 256 3ZM256 0C114.62 0 0 114.62 0 256C0 397.38 114.62 512 256 512C397.38 512 512 397.38 512 256C512 114.62 397.38 0 256 0Z" fill="#0088C4"/>
<path d="M256 483.68C384.147 483.68 488.03 381.744 488.03 256C488.03 130.256 384.147 28.32 256 28.32C127.853 28.32 23.97 130.256 23.97 256C23.97 381.744 127.853 483.68 256 483.68Z" fill="#0088C4"/>
<path d="M146.459 242.311C147.338 242.311 148.461 242.359 149.828 242.457C151.293 242.555 152.367 242.604 153.051 242.604C163.988 242.604 171.703 240.406 176.195 236.012C180.785 231.617 183.08 224.195 183.08 213.746C183.08 204.078 180.785 197.242 176.195 193.238C171.703 189.137 163.988 187.086 153.051 187.086C152.367 187.086 151.293 187.135 149.828 187.232C148.461 187.33 147.338 187.379 146.459 187.379V242.311ZM94.3105 374V148.414H153.637C173.07 148.414 187.182 149.342 195.971 151.197C204.76 152.955 211.889 156.031 217.357 160.426C223.803 165.699 228.588 172.193 231.713 179.908C234.936 187.623 236.547 196.803 236.547 207.447C236.547 220.436 234.252 231.324 229.662 240.113C225.17 248.902 218.139 256.129 208.568 261.793C224.877 269.02 233.471 286.158 234.35 313.209V313.941C234.447 316.773 234.545 320.875 234.643 326.246C235.033 351.637 239.232 367.555 247.24 374H185.57C184.203 369.312 183.178 364.43 182.494 359.352C181.908 354.176 181.615 348.658 181.615 342.799C181.615 339.186 181.713 334.84 181.908 329.762C182.104 324.586 182.201 321.217 182.201 319.654C182.201 305.885 180.395 296.461 176.781 291.383C173.168 286.305 166.674 283.766 157.299 283.766H146.459V374H94.3105ZM270.092 374V148.414H322.826V233.668H365.16V148.414H416.723V374H365.16V280.396H322.826V374H270.092Z" fill="white"/>
</svg>
