<?xml version="1.0" encoding="UTF-8"?>
<svg id="_Слой_2" data-name="Слой 2" xmlns="http://www.w3.org/2000/svg" viewBox="0 0 512 512">
  <defs>
    <style>
      .cls-1, .cls-2 {
        fill: #fff;
      }

      .cls-2 {
        font-family: Swiss721BT-BlackCondensed, 'Swis721 BlkCn BT';
        font-size: 287.3px;
        font-weight: 800;
      }

      .cls-3 {
        fill: #0088c4;
      }
    </style>
  </defs>
  <g id="_Слой_1-2" data-name="Слой 1">
    <g>
      <g>
        <path class="cls-1" d="m256,510.5c-67.98,0-131.89-26.47-179.96-74.54C27.97,387.89,1.5,323.98,1.5,256S27.97,124.11,76.04,76.04C124.11,27.97,188.02,1.5,256,1.5s131.89,26.47,179.96,74.54c48.07,48.07,74.54,111.98,74.54,179.96s-26.47,131.89-74.54,179.96c-48.07,48.07-111.98,74.54-179.96,74.54Z"/>
        <path class="cls-3" d="m256,3c34.16,0,67.29,6.69,98.48,19.88,30.13,12.74,57.18,30.99,80.42,54.22,23.24,23.24,41.48,50.29,54.22,80.42,13.19,31.19,19.88,64.32,19.88,98.48s-6.69,67.29-19.88,98.48c-12.74,30.13-30.99,57.18-54.22,80.42-23.24,23.24-50.29,41.48-80.42,54.22-31.19,13.19-64.32,19.88-98.48,19.88s-67.29-6.69-98.48-19.88c-30.13-12.74-57.18-30.99-80.42-54.22-23.24-23.24-41.48-50.29-54.22-80.42-13.19-31.19-19.88-64.32-19.88-98.48s6.69-67.29,19.88-98.48c12.74-30.13,30.99-57.18,54.22-80.42,23.24-23.24,50.29-41.48,80.42-54.22,31.19-13.19,64.32-19.88,98.48-19.88m0-3C114.62,0,0,114.62,0,256s114.62,256,256,256,256-114.62,256-256S397.38,0,256,0h0Z"/>
      </g>
      <ellipse class="cls-3" cx="256" cy="256" rx="232.03" ry="227.68"/>
      <text class="cls-2" transform="translate(86.75 369.57) scale(.98 1)"><tspan x="0" y="0">RH</tspan></text>
    </g>
  </g>
</svg>