<svg width="1130" height="235" viewBox="0 0 1130 235" fill="none" xmlns="http://www.w3.org/2000/svg">
<g clip-path="url(#clip0_302_17)">
<path d="M117.5 3C148.08 3 176.84 14.91 198.46 36.54C220.09 58.17 232 86.92 232 117.5C232 148.08 220.09 176.84 198.46 198.46C176.83 220.09 148.08 232 117.5 232C86.92 232 58.16 220.09 36.54 198.46C14.91 176.84 3 148.08 3 117.5C3 86.92 14.91 58.16 36.54 36.54C58.16 14.91 86.92 3 117.5 3ZM117.5 0C52.61 0 0 52.61 0 117.5C0 182.39 52.61 235 117.5 235C182.39 235 235 182.39 235 117.5C235 52.61 182.39 0 117.5 0Z" fill="white"/>
<path d="M117.5 16C174.57 16 221 61.53 221 117.5C221 173.47 174.57 219 117.5 219C60.43 219 14 173.47 14 117.5C14 61.53 60.43 16 117.5 16ZM117.5 13C58.68 13 11 59.79 11 117.5C11 175.21 58.68 222 117.5 222C176.32 222 224 175.21 224 117.5C224 59.79 176.32 13 117.5 13Z" fill="white"/>
<path d="M70.4802 105.456C70.8627 105.456 71.3514 105.477 71.9463 105.519C72.5837 105.562 73.0512 105.583 73.3486 105.583C78.1081 105.583 81.4652 104.627 83.4199 102.715C85.4172 100.802 86.4158 97.5727 86.4158 93.0257C86.4158 88.8187 85.4172 85.8441 83.4199 84.1018C81.4652 82.317 78.1081 81.4246 73.3486 81.4246C73.0512 81.4246 72.5837 81.4458 71.9463 81.4883C71.3514 81.5308 70.8627 81.5521 70.4802 81.5521V105.456ZM47.7879 162.76V64.5966H73.6036C82.0601 64.5966 88.2006 65.0003 92.0252 65.8077C95.8497 66.5726 98.9519 67.9112 101.332 69.8235C104.136 72.1182 106.219 74.9441 107.578 78.3012C108.981 81.6583 109.682 85.6528 109.682 90.2848C109.682 95.9366 108.683 100.675 106.686 104.499C104.731 108.324 101.672 111.469 97.507 113.933C104.604 117.078 108.343 124.536 108.726 136.307V136.626C108.768 137.858 108.811 139.643 108.853 141.98C109.023 153.029 110.85 159.955 114.335 162.76H87.4995C86.9045 160.72 86.4583 158.596 86.1609 156.386C85.9059 154.134 85.7784 151.733 85.7784 149.183C85.7784 147.611 85.8209 145.72 85.9059 143.51C85.9909 141.258 86.0334 139.791 86.0334 139.112C86.0334 133.12 85.2472 129.019 83.6749 126.809C82.1026 124.6 79.2767 123.495 75.1972 123.495H70.4802V162.76H47.7879ZM124.279 162.76V64.5966H147.226V101.695H165.648V64.5966H188.085V162.76H165.648V122.029H147.226V162.76H124.279Z" fill="white"/>
<path d="M279.235 102.149C279.722 102.149 280.344 102.176 281.101 102.23C281.912 102.284 282.507 102.311 282.886 102.311C288.942 102.311 293.214 101.095 295.701 98.6613C298.243 96.2279 299.514 92.1182 299.514 86.3321C299.514 80.9786 298.243 77.1933 295.701 74.9762C293.214 72.705 288.942 71.5695 282.886 71.5695C282.507 71.5695 281.912 71.5965 281.101 71.6506C280.344 71.7047 279.722 71.7317 279.235 71.7317V102.149ZM250.359 175.07V50.1556H283.21C293.971 50.1556 301.785 50.6693 306.652 51.6967C311.519 52.6701 315.466 54.3734 318.494 56.8068C322.063 59.7269 324.713 63.3229 326.443 67.5949C328.228 71.8669 329.12 76.95 329.12 82.8442C329.12 90.0363 327.849 96.0657 325.308 100.932C322.82 105.799 318.927 109.801 313.627 112.937C322.658 116.939 327.417 126.429 327.903 141.408V141.814C327.958 143.382 328.012 145.653 328.066 148.627C328.282 162.687 330.607 171.501 335.041 175.07H300.893C300.136 172.474 299.568 169.771 299.189 166.959C298.865 164.093 298.703 161.037 298.703 157.793C298.703 155.792 298.757 153.386 298.865 150.574C298.973 147.708 299.027 145.842 299.027 144.977C299.027 137.352 298.027 132.134 296.026 129.322C294.025 126.51 290.429 125.104 285.238 125.104H279.235V175.07H250.359ZM388.252 142.138H412.829V144.49C412.829 155.468 409.963 163.741 404.231 169.311C398.499 174.827 389.955 177.585 378.599 177.585C372.867 177.585 367.676 176.773 363.025 175.151C358.375 173.529 354.752 171.285 352.156 168.419C349.236 165.12 347.154 160.74 345.911 155.278C344.667 149.817 344.045 141.084 344.045 129.079C344.045 115.83 344.667 106.583 345.911 101.338C347.208 96.0927 349.398 91.7667 352.481 88.3599C355.455 85.1695 359.213 82.7631 363.755 81.1408C368.352 79.5186 373.678 78.7074 379.735 78.7074C385.899 78.7074 391.226 79.5997 395.714 81.3842C400.202 83.1146 403.852 85.7102 406.664 89.171C409.044 92.0911 410.747 95.579 411.775 99.6347C412.802 103.69 413.316 110.612 413.316 120.4V131.674H370.65C370.596 131.945 370.569 132.296 370.569 132.729C370.353 136.676 370.245 139.434 370.245 141.002C370.245 147.6 370.948 152.196 372.354 154.792C373.759 157.333 376.166 158.604 379.573 158.604C382.547 158.604 384.791 157.631 386.305 155.684C387.819 153.683 388.576 150.682 388.576 146.68C388.576 145.869 388.495 144.625 388.333 142.949C388.279 142.625 388.252 142.354 388.252 142.138ZM371.299 115.452H388.901C388.901 115.344 388.901 115.181 388.901 114.965C389.117 112.586 389.225 110.909 389.225 109.936C389.225 105.34 388.468 101.96 386.954 99.7969C385.494 97.5798 383.196 96.4712 380.059 96.4712C376.869 96.4712 374.571 97.5528 373.165 99.7158C371.813 101.825 371.137 105.34 371.137 110.26C371.137 111.612 371.137 112.667 371.137 113.424C371.191 114.181 371.245 114.857 371.299 115.452ZM471.149 129.89C464.39 131.783 459.442 134.135 456.306 136.947C453.223 139.759 451.682 143.274 451.682 147.491C451.682 150.466 452.439 152.845 453.953 154.629C455.522 156.414 457.604 157.306 460.199 157.306C464.039 157.306 466.823 156.008 468.554 153.413C470.284 150.817 471.149 146.464 471.149 140.354V129.89ZM474.475 175.07L472.934 166.472C469.635 169.933 466.012 172.555 462.065 174.34C458.171 176.07 453.926 176.936 449.33 176.936C441.976 176.936 436.136 174.556 431.81 169.798C427.538 165.039 425.402 158.604 425.402 150.493C425.402 143.409 427.213 137.569 430.836 132.972C434.513 128.376 440.516 124.401 448.843 121.049C450.844 120.292 453.548 119.291 456.955 118.047C466.742 114.478 471.636 110.45 471.636 105.961C471.636 103.204 470.933 101.122 469.527 99.7158C468.121 98.2557 466.093 97.5257 463.444 97.5257C460.253 97.5257 457.874 98.4991 456.306 100.446C454.792 102.338 454.035 105.286 454.035 109.287V109.936H427.754C427.754 99.3372 430.701 91.4693 436.595 86.3321C442.489 81.1408 451.439 78.5452 463.444 78.5452C468.851 78.5452 473.664 79.0589 477.882 80.0864C482.154 81.0597 485.723 82.4927 488.589 84.3854C492.266 86.8728 494.835 89.874 496.295 93.3889C497.809 96.9038 498.566 103.312 498.566 112.613V115.452V148.789C498.566 156.144 498.809 161.767 499.296 165.661C499.837 169.5 500.702 172.637 501.891 175.07H474.475ZM541.961 175.07H515.924V50.1556H541.961V175.07ZM602.066 174.746C598.876 175.34 596.091 175.773 593.712 176.043C591.332 176.368 589.304 176.53 587.628 176.53C582.437 176.53 578.003 175.692 574.326 174.016C570.703 172.339 568.026 169.933 566.295 166.796C565.16 164.633 564.349 161.93 563.862 158.685C563.429 155.387 563.213 150.385 563.213 143.679V132.08V100.608H553.074V81.2219H563.213V55.2657H589.575V81.2219H602.066V100.608H589.575V138.893C589.575 147.059 590.17 152.088 591.359 153.981C592.549 155.873 594.847 156.82 598.254 156.82C598.849 156.82 599.822 156.738 601.174 156.576C601.553 156.522 601.85 156.495 602.066 156.495V174.746ZM607.176 81.2219H633.133L642.298 141.651L651.545 81.2219H677.502L658.846 167.445C655.277 183.992 651.275 194.645 646.841 199.404C642.407 204.217 635.35 206.623 625.67 206.623C624.264 206.623 622.669 206.542 620.885 206.38C619.154 206.218 617.153 205.974 614.882 205.65V186.02C614.99 186.02 615.153 186.047 615.369 186.101C617.207 186.264 618.532 186.345 619.343 186.345C622.318 186.345 624.508 185.777 625.914 184.641C627.374 183.56 628.104 181.856 628.104 179.531C628.104 178.071 627.563 174.854 626.481 169.879C626.103 168.148 625.832 166.823 625.67 165.904L607.176 81.2219Z" fill="#E2E2E2"/>
<path d="M689.02 175.07V50.1556H718.221V97.3635H741.662V50.1556H770.214V175.07H741.662V123.239H718.221V175.07H689.02ZM857.005 81.2219V175.07H832.428V163.957C829.508 168.446 826.236 171.744 822.613 173.853C818.99 175.908 814.718 176.936 809.797 176.936C802.551 176.936 797.225 174.502 793.818 169.635C790.411 164.769 788.708 157.117 788.708 146.68V81.2219H814.989V139.218C814.989 146.734 815.475 151.412 816.449 153.251C817.422 155.035 819.152 155.927 821.64 155.927C824.56 155.927 826.831 154.521 828.453 151.709C830.13 148.897 830.968 144.95 830.968 139.867V81.2219H857.005ZM909.567 101.338C906.484 101.338 904.294 102.852 902.997 105.88C901.753 108.855 901.131 114.316 901.131 122.265C901.131 137.731 901.78 147.275 903.078 150.898C904.43 154.521 906.836 156.333 910.297 156.333C913.217 156.333 915.245 154.954 916.38 152.196C917.516 149.438 918.084 143.111 918.084 133.216V130.701C918.084 117.453 917.489 109.26 916.299 106.124C915.109 102.933 912.865 101.338 909.567 101.338ZM875.418 50.1556H901.618V89.82C903.997 86.1428 906.674 83.439 909.648 81.7086C912.676 79.9241 916.164 79.0319 920.111 79.0319C929.358 79.0319 935.766 82.3846 939.335 89.0899C942.904 95.7412 944.689 109.666 944.689 130.863C944.689 140.705 944.418 148.222 943.878 153.413C943.337 158.604 942.499 162.443 941.363 164.931C939.416 169.149 936.713 172.339 933.252 174.502C929.791 176.665 925.627 177.747 920.76 177.747C916.326 177.747 912.325 176.638 908.756 174.421C905.187 172.204 902.158 168.987 899.671 164.769V175.07H875.418V50.1556ZM957.586 175.07V173.042C957.586 168.284 958.1 163.606 959.127 159.01C960.208 154.359 961.858 149.682 964.075 144.977C968.563 135.189 975.62 125.429 985.245 115.695C986.651 114.289 987.679 113.262 988.328 112.613L989.058 111.802C999.603 100.716 1004.87 91.0096 1004.87 82.682C1004.87 78.8426 1004.12 75.8955 1002.6 73.8406C1001.09 71.7858 998.927 70.7583 996.115 70.7583C992.113 70.7583 989.193 72.4347 987.354 75.7874C985.57 79.14 984.678 84.4935 984.678 91.8478V94.0378H958.721V90.7122C958.721 77.3015 961.993 67.0271 968.536 59.8892C975.133 52.7512 984.597 49.1822 996.926 49.1822C1008.07 49.1822 1016.77 52.2645 1023.04 58.4291C1029.32 64.5937 1032.45 73.1377 1032.45 84.0609C1032.45 90.4959 1031.1 96.6335 1028.4 102.474C1025.69 108.26 1021.45 114.127 1015.66 120.075C1014.42 121.373 1012.55 123.239 1010.07 125.672C999.792 135.676 993.357 143.95 990.761 150.493H1032.13V175.07H957.586ZM1090.29 129.565V79.5186L1067.58 129.565H1090.29ZM1087.12 175.07V150.979H1045.92V127.375L1085.34 51.6156H1113.89V129.565H1124.68V150.979H1113.89V175.07H1087.12Z" fill="white"/>
</g>
<defs>
<clipPath id="clip0_302_17">
<rect width="1129.38" height="235" fill="white"/>
</clipPath>
</defs>
</svg>
